<svg height="511pt" viewBox="1 -35 511.99999 511" width="511pt" xmlns="http://www.w3.org/2000/svg"><path d="m41.6875 330.152344v79.175781c12.382812-4.398437 20.660156-16.105469 20.675781-29.246094v-20.679687c-.015625-13.140625-8.292969-24.851563-20.675781-29.25zm0 0"/><path d="m322.5 156.121094c2.851562-2.683594 6.972656-3.523438 10.648438-2.171875l92.179687 33.828125c.535156-.140625 1.078125-.238282 1.625-.289063l85.046875-43.691406-386.839844-143.296875-39.191406 106.726562 207.519531 76.207032zm-132.335938-32.660156-19.417968-7.136719 7.132812-19.402344 19.40625 7.132813zm38.808594 14.257812-19.402344-7.136719 7.121094-19.40625 19.417969 7.136719zm38.804688 14.253906-19.40625-7.132812 7.121094-19.40625 19.417968 7.136718zm0 0"/><path d="m238.445312 411.097656c0 5.710938 4.628907 10.335938 10.339844 10.335938 5.707032 0 10.335938-4.625 10.335938-10.335938v-10.339844h-20.675782zm0 0"/><path d="m0 297.371094h21.007812v144.742187h-21.007812zm0 0"/><path d="m238.445312 295.382812v43.339844h20.675782v-37.816406c-4.132813-.179688-8.21875-.980469-12.117188-2.378906zm0 0"/><path d="m303.011719 202.871094c-2.863281 2.671875-6.980469 3.511718-10.660157 2.171875l-155.28125-57.019531-7.132812 19.417968 262.050781 96.222656 21.378907-58.226562-81.347657-29.878906zm0 0"/><path d="m434.945312 206.644531-15.972656 43.519531c18.746094 1.816407 36.367188-9.222656 42.914063-26.882812 3.515625-9.742188 3.214843-20.453125-.847657-29.984375zm0 0"/><path d="m83.363281 359.402344h175.757813v20.679687h-175.757813zm0 0"/><path d="m229.574219 226.03125-7.132813 19.40625c-3.953125 10.714844 1.527344 22.605469 12.242188 26.554688 0 .003906.003906.003906.007812.003906l19.417969 7.125c10.714844 3.933594 22.585937-1.5625 26.527344-12.273438l7.132812-19.414062-5.820312-2.140625zm0 0"/></svg>