<svg id="Layer_1" height="512" viewBox="0 0 128 128" width="512" xmlns="http://www.w3.org/2000/svg" data-name="Layer 1"><path d="m26.667 64.315h74.667a0 0 0 0 1 0 0v13.852a37.333 37.333 0 0 1 -37.334 37.333 37.333 37.333 0 0 1 -37.333-37.333v-13.852a0 0 0 0 1 0 0z" fill="#943100"/><path d="m26.667 78.167a37.244 37.244 0 0 0 13.223 28.494c7.882-5.837 7.823-16.754 7.823-16.754s8.932-13.761 7.687-25.592h-28.733z" fill="#fdb73c"/><path d="m101.333 78.167a37.244 37.244 0 0 1 -13.223 28.494c-7.882-5.837-7.823-16.754-7.823-16.754s-8.932-13.761-7.687-25.592h28.732z" fill="#e67b2a"/><ellipse cx="64" cy="55.915" fill="#943100" rx="42.521" ry="36.79"/><path d="m54.241 20.11c-18.778 3.818-32.762 18.39-32.762 35.805s13.984 31.985 32.762 35.806c18.777-3.821 32.759-18.394 32.759-35.806s-13.982-31.987-32.759-35.805z" fill="#a55000"/><path d="m56.047 64.906 7.952 10.094 7.946-10.094v-14.573h-15.898z" fill="#fdb73c"/><path d="m63.999 75 .001-24.667 7.945 14.573z" fill="#e67b2a"/><circle cx="46.667" cy="50.333" fill="#f8bda2" r="17.333"/><path d="m29.333 50.333a17.248 17.248 0 0 0 4.287 11.387 17.318 17.318 0 0 0 19.968-27.274 17.325 17.325 0 0 0 -24.255 15.887z" fill="#fbccbb"/><circle cx="81.333" cy="50.333" fill="#f8bda2" r="17.333"/><circle cx="46.667" cy="50.333" fill="#112d34" r="3.296"/><path d="m64 50.333a17.248 17.248 0 0 0 4.286 11.387 17.318 17.318 0 0 0 19.969-27.274 17.325 17.325 0 0 0 -24.255 15.887z" fill="#fbccbb"/><circle cx="81.333" cy="50.333" fill="#112d34" r="3.296"/><path d="m64 45.833s.629-13.667-18.537-20-20.502-13.333-20.502-13.333-.028 16.772 15.319 21.72 23.72 11.613 23.72 11.613z" fill="#943100"/><path d="m64 45.833s-.629-13.667 18.537-20 20.5-13.333 20.5-13.333.029 16.772-15.319 21.72-23.718 11.613-23.718 11.613z" fill="#943100"/><path d="m91 113.75h-54a1.75 1.75 0 0 0 0 3.5h54a1.75 1.75 0 0 0 0-3.5z" fill="#112d34"/></svg>