<?xml version="1.0" encoding="iso-8859-1"?>
<!-- Generator: Adobe Illustrator 19.0.0, SVG Export Plug-In . SVG Version: 6.00 Build 0)  -->
<svg version="1.1" id="Capa_1" xmlns="http://www.w3.org/2000/svg" xmlns:xlink="http://www.w3.org/1999/xlink" x="0px" y="0px"
	 viewBox="0 0 512 512" style="enable-background:new 0 0 512 512;" xml:space="preserve">
<g>
	<g>
		<g>
			<path d="M467,244.673h-11.729l-60-120H381v-60h-80h-90h-80v60h-14.271l-60,120H45c-24.813,0-45,20.187-45,45v135h30v80h80v-80
				h292v80h80v-80h30v-135C512,264.86,491.813,244.673,467,244.673z M281,94.673h70v30h-70V94.673z M161,94.673h70v30h-70V94.673z
				 M135.271,154.673H211h90h75.729l45,90H90.271L135.271,154.673z M101,364.673c-16.569,0-30-13.431-30-30
				c0-16.569,13.431-30,30-30c16.569,0,30,13.431,30,30C131,351.242,117.569,364.673,101,364.673z M411,364.673
				c-16.569,0-30-13.431-30-30c0-16.569,13.431-30,30-30c16.569,0,30,13.431,30,30C441,351.242,427.569,364.673,411,364.673z"/>
			<rect x="31" y="74.67" width="60" height="30"/>
			<rect x="39.816" y="15.885" transform="matrix(0.9511 0.309 -0.309 0.9511 12.9597 -20.0614)" width="60.002" height="30.001"/>
			<rect x="421" y="74.67" width="60" height="30"/>
			
				<rect x="427.167" y="0.865" transform="matrix(0.309 0.9511 -0.9511 0.309 334.8802 -399.1995)" width="29.998" height="59.995"/>
		</g>
	</g>
</g>
<g>
</g>
<g>
</g>
<g>
</g>
<g>
</g>
<g>
</g>
<g>
</g>
<g>
</g>
<g>
</g>
<g>
</g>
<g>
</g>
<g>
</g>
<g>
</g>
<g>
</g>
<g>
</g>
<g>
</g>
</svg>
